<svg width="406" height="448" viewBox="0 0 406 448" fill="none" xmlns="http://www.w3.org/2000/svg">
<mask id="path-1-inside-1_5_1494" fill="white">
<path fill-rule="evenodd" clip-rule="evenodd" d="M290.727 86.8771C242.558 86.8771 203.85 125.585 203.85 173.754C203.85 125.585 166.863 87.7373 116.973 86.8771C166.863 87.7373 204.71 49.8898 203.85 0C204.71 49.8898 242.558 86.8771 290.727 86.8771ZM203.86 330.316C203.86 314.178 211.145 299.415 223.327 287.871C250.801 284.68 276.279 274.819 298.149 259.922C297.943 297.652 274.833 328 245.325 351.996C245.215 352.018 245.104 352.04 244.993 352.061C220.254 371.716 203.85 406.916 203.85 447.278C203.85 406.894 188.158 372.146 163.43 352.52C70.2581 335.437 0 259.192 0 167.72C0 119.931 19.1767 76.2977 50.7788 43.0862C40.2798 65.4693 34.4036 90.5182 34.4036 116.96C34.4036 205.42 100.167 278.286 184.767 287.915C196.831 299.396 203.86 314.099 203.86 330.316ZM286.643 339.414C357.031 309.839 406 244.086 406 167.72C406 121.651 388.179 79.4447 358.586 46.7133C368.048 68.1623 373.31 91.9375 373.31 116.96C373.31 168.327 351.136 214.435 315.975 245.957C320.951 285.618 305.596 317.414 286.643 339.414Z"/>
</mask>
<path fill-rule="evenodd" clip-rule="evenodd" d="M290.727 86.8771C242.558 86.8771 203.85 125.585 203.85 173.754C203.85 125.585 166.863 87.7373 116.973 86.8771C166.863 87.7373 204.71 49.8898 203.85 0C204.71 49.8898 242.558 86.8771 290.727 86.8771ZM203.86 330.316C203.86 314.178 211.145 299.415 223.327 287.871C250.801 284.68 276.279 274.819 298.149 259.922C297.943 297.652 274.833 328 245.325 351.996C245.215 352.018 245.104 352.04 244.993 352.061C220.254 371.716 203.85 406.916 203.85 447.278C203.85 406.894 188.158 372.146 163.43 352.52C70.2581 335.437 0 259.192 0 167.72C0 119.931 19.1767 76.2977 50.7788 43.0862C40.2798 65.4693 34.4036 90.5182 34.4036 116.96C34.4036 205.42 100.167 278.286 184.767 287.915C196.831 299.396 203.86 314.099 203.86 330.316ZM286.643 339.414C357.031 309.839 406 244.086 406 167.72C406 121.651 388.179 79.4447 358.586 46.7133C368.048 68.1623 373.31 91.9375 373.31 116.96C373.31 168.327 351.136 214.435 315.975 245.957C320.951 285.618 305.596 317.414 286.643 339.414Z" fill="url(#paint0_linear_5_1494)"/>
<path d="M223.327 287.871L223.292 287.573L223.193 287.585L223.121 287.653L223.327 287.871ZM298.149 259.922L298.449 259.923L298.453 259.352L297.981 259.674L298.149 259.922ZM245.325 351.996L245.383 352.291L245.457 352.276L245.515 352.229L245.325 351.996ZM244.993 352.061L244.936 351.767L244.864 351.781L244.807 351.826L244.993 352.061ZM163.43 352.52L163.616 352.285L163.557 352.238L163.484 352.225L163.43 352.52ZM50.7788 43.0862L51.0504 43.2136L50.5615 42.8794L50.7788 43.0862ZM184.767 287.915L184.974 287.698L184.901 287.628L184.801 287.617L184.767 287.915ZM286.643 339.414L286.415 339.218L286.759 339.69L286.643 339.414ZM358.586 46.7133L358.808 46.5121L358.311 46.8344L358.586 46.7133ZM315.975 245.957L315.775 245.734L315.658 245.838L315.678 245.994L315.975 245.957ZM204.15 173.754C204.15 125.75 242.723 87.1771 290.727 87.1771V86.5771C242.392 86.5771 203.55 125.419 203.55 173.754H204.15ZM116.968 87.1771C166.697 88.0345 203.55 125.751 203.55 173.754H204.15C204.15 125.418 167.029 87.4401 116.978 86.5772L116.968 87.1771ZM203.55 0.00517164C204.407 49.7253 166.698 87.4344 116.978 86.5772L116.968 87.1771C167.027 88.0402 205.013 50.0544 204.15 -0.00517164L203.55 0.00517164ZM290.727 86.5771C242.724 86.5771 205.007 49.7239 204.15 -0.00517164L203.55 0.00517164C204.413 50.0557 242.391 87.1771 290.727 87.1771V86.5771ZM223.121 287.653C210.889 299.244 203.56 314.082 203.56 330.316H204.16C204.16 314.273 211.401 299.586 223.533 288.089L223.121 287.653ZM297.981 259.674C276.149 274.544 250.717 284.388 223.292 287.573L223.361 288.169C250.885 284.973 276.409 275.093 298.318 260.17L297.981 259.674ZM245.515 352.229C275.05 328.21 298.242 297.786 298.449 259.923L297.849 259.92C297.643 297.519 274.616 327.79 245.136 351.763L245.515 352.229ZM245.051 352.356C245.162 352.334 245.273 352.312 245.383 352.291L245.268 351.702C245.157 351.724 245.047 351.745 244.936 351.767L245.051 352.356ZM204.15 447.278C204.15 406.992 220.524 371.884 245.18 352.296L244.807 351.826C219.984 371.547 203.55 406.84 203.55 447.278H204.15ZM163.243 352.755C187.886 372.313 203.55 406.966 203.55 447.278H204.15C204.15 406.821 188.43 371.979 163.616 352.285L163.243 352.755ZM-0.3 167.72C-0.3 259.355 70.0801 335.709 163.375 352.815L163.484 352.225C70.4362 335.165 0.3 259.029 0.3 167.72H-0.3ZM50.5615 42.8794C18.9104 76.1423 -0.3 119.848 -0.3 167.72H0.3C0.3 120.013 19.443 76.4531 50.9961 43.293L50.5615 42.8794ZM34.7036 116.96C34.7036 90.563 40.5698 65.5575 51.0504 43.2136L50.5072 42.9588C39.9899 65.381 34.1036 90.4734 34.1036 116.96H34.7036ZM184.801 287.617C100.355 278.005 34.7036 205.269 34.7036 116.96H34.1036C34.1036 205.571 99.9801 278.566 184.733 288.213L184.801 287.617ZM204.16 330.316C204.16 314.006 197.089 299.228 184.974 287.698L184.56 288.132C196.572 299.564 203.56 314.191 203.56 330.316H204.16ZM286.759 339.69C357.245 310.074 406.3 244.221 406.3 167.72H405.7C405.7 243.951 356.817 309.603 286.526 339.137L286.759 339.69ZM406.3 167.72C406.3 121.571 388.448 79.2945 358.808 46.5121L358.363 46.9145C387.91 79.5948 405.7 121.731 405.7 167.72H406.3ZM358.311 46.8344C367.757 68.2459 373.01 91.9799 373.01 116.96H373.61C373.61 91.8951 368.339 68.0787 358.86 46.5922L358.311 46.8344ZM373.01 116.96C373.01 168.239 350.874 214.266 315.775 245.734L316.176 246.18C351.398 214.603 373.61 168.415 373.61 116.96H373.01ZM315.678 245.994C320.64 285.551 305.329 317.265 286.415 339.218L286.87 339.61C305.864 317.563 321.261 285.685 316.273 245.92L315.678 245.994Z" fill="url(#paint1_linear_5_1494)" mask="url(#path-1-inside-1_5_1494)"/>
<defs>
<linearGradient id="paint0_linear_5_1494" x1="55.911" y1="97.1969" x2="178.91" y2="362.985" gradientUnits="userSpaceOnUse">
<stop stop-color="#426BFF"/>
<stop offset="0.500733" stop-color="#89A3FF"/>
<stop offset="1" stop-color="#426BFF"/>
</linearGradient>
<linearGradient id="paint1_linear_5_1494" x1="-20.1398" y1="79.5386" x2="303.753" y2="353.138" gradientUnits="userSpaceOnUse">
<stop offset="0.039296" stop-color="#282EA9" stop-opacity="0"/>
<stop offset="0.168396" stop-color="#59B3FC"/>
<stop offset="0.468626" stop-color="#7EC7FE" stop-opacity="0"/>
<stop offset="0.697494" stop-color="#97D5FF"/>
<stop offset="0.954008" stop-color="#728DFB" stop-opacity="0.1"/>
</linearGradient>
</defs>
</svg>
